<svg xmlns="http://www.w3.org/2000/svg" viewBox="0 0 800 500" width="800" height="500">
  <defs>
    <linearGradient id="bgGrad" x1="0%" y1="0%" x2="100%" y2="100%">
      <stop offset="0%" stop-color="#09090b"/>
      <stop offset="100%" stop-color="#18181b"/>
    </linearGradient>
    <linearGradient id="orangeGrad" x1="0%" y1="0%" x2="100%" y2="0%">
      <stop offset="0%" stop-color="#ea580c"/>
      <stop offset="100%" stop-color="#f97316"/>
    </linearGradient>
  </defs>
  <rect width="800" height="500" fill="url(#bgGrad)"/>
  <rect x="40" y="40" width="720" height="420" rx="16" fill="#111114" stroke="#27272a" stroke-width="2"/>
  <!-- Top bar -->
  <rect x="40" y="40" width="720" height="48" rx="16" fill="#1c1c20"/>
  <circle cx="70" cy="64" r="6" fill="#ef4444"/>
  <circle cx="90" cy="64" r="6" fill="#f59e0b"/>
  <circle cx="110" cy="64" r="6" fill="#10b981"/>
  <!-- Sidebar -->
  <rect x="60" y="110" width="160" height="330" rx="8" fill="#18181b"/>
  <rect x="80" y="130" width="120" height="16" rx="4" fill="#27272a"/>
  <rect x="80" y="160" width="100" height="12" rx="4" fill="url(#orangeGrad)"/>
  <rect x="80" y="184" width="90" height="12" rx="4" fill="#27272a"/>
  <rect x="80" y="208" width="110" height="12" rx="4" fill="#27272a"/>
  <!-- Main stats -->
  <rect x="240" y="110" width="230" height="100" rx="12" fill="#18181b" stroke="#27272a"/>
  <text x="260" y="145" fill="#a1a1aa" font-family="system-ui" font-size="12" font-weight="600">ACTIVE TELEMETRY</text>
  <text x="260" y="185" fill="#f97316" font-family="system-ui" font-size="28" font-weight="800">99.98%</text>

  <rect x="490" y="110" width="245" height="100" rx="12" fill="#18181b" stroke="#27272a"/>
  <text x="510" y="145" fill="#a1a1aa" font-family="system-ui" font-size="12" font-weight="600">QUERY LATENCY</text>
  <text x="510" y="185" fill="#10b981" font-family="system-ui" font-size="28" font-weight="800">&lt; 120ms</text>
  <!-- Chart area -->
  <rect x="240" y="230" width="495" height="210" rx="12" fill="#18181b" stroke="#27272a"/>
  <path d="M 270 380 Q 340 330 400 350 T 520 280 T 630 300 T 700 260" fill="none" stroke="url(#orangeGrad)" stroke-width="4"/>
  <circle cx="700" cy="260" r="6" fill="#f97316"/>
</svg>
